#!OML:ASF F:\VICON\USERDATA\INSTALL\Justin_Nancy\Justin_Nancy.ASF
:FULLY-SPECIFIED
:DEGREES
472
root 11.7003 17.571 15.8685 138.897 95.7154 137.032
lowerback 7.86307 1.51331 1.48773
upperback 0.262242 2.31815 2.84333
thorax -4.1993 1.16692 1.84764
lowerneck -17.5113 -3.70556 -10.3334
upperneck 20.9799 -3.17166 4.49093
head 9.80788 -1.73124 2.86563
rclavicle -1.36664e-014 2.78299e-015
rhumerus -24.9354 -8.15004 -80.189
rradius 34.6507
rwrist 1.44916
rhand -14.6784 11.4759
rfingers 7.12502
rthumb 11.4749 -18.19
lclavicle -1.36664e-014 2.78299e-015
lhumerus -34.327 19.516 80.6408
lradius 24.0354
lwrist -10.4416
lhand -17.1831 23.772
lfingers 7.12502
lthumb 9.05866 53.5575
rfemur -0.111103 8.08095 28.7518
rtibia 19.4031
rfoot -13.8665 -5.08059
rtoes 9.33676
lfemur -31.1281 1.21467 -15.318
ltibia 42.7099
lfoot -6.77385 6.84134
ltoes -7.58722
473
root 11.8277 17.5656 15.8596 136.939 95.5795 135.01
lowerback 7.89336 1.55652 1.87239
upperback 0.252998 2.40327 2.69002
thorax -4.20538 1.19904 1.46202
lowerneck -17.5227 -3.8067 -10.0076
upperneck 20.9946 -3.34313 4.24336
head 9.81856 -1.81262 2.69998
rclavicle -1.48592e-014 7.55382e-015
rhumerus -25.1502 -6.77102 -80.5396
rradius 35.7037
rwrist -0.354815
rhand -15.4988 10.867
rfingers 7.12502
rthumb 10.6836 -18.8414
lclavicle -1.48592e-014 7.55382e-015
lhumerus -34.1584 19.144 80.6292
lradius 23.8214
lwrist -10.2485
lhand -15.5569 23.1094
lfingers 7.12502
lthumb 10.6276 52.8206
rfemur 0.459274 8.17065 28.7733
rtibia 19.2057
rfoot -14.1275 -4.76243
rtoes 12.5383
lfemur -31.0656 0.681724 -15.1528
ltibia 40.2066
lfoot -6.15723 6.53055
ltoes -5.76341
474
root 11.9592 17.5775 15.8886 141.183 96.0628 139.26
lowerback 7.91198 1.78901 1.44332
upperback 0.325923 2.67729 2.78345
thorax -4.16786 1.3449 1.76867
lowerneck -17.8036 -3.86744 -10.2559
upperneck 21.1486 -3.36416 4.39056
head 9.93533 -1.8256 2.78987
rclavicle -2.08724e-014 5.96354e-015
rhumerus -24.5267 -7.85543 -80.5445
rradius 35.5062
rwrist 0.730447
rhand -15.9217 10.7293
rfingers 7.12502
rthumb 10.2757 -18.9997
lclavicle -2.08724e-014 5.96354e-015
lhumerus -34.112 18.7147 80.94
lradius 23.8241
lwrist -9.87311
lhand -15.1017 23.1722
lfingers 7.12502
lthumb 11.0667 52.8604
rfemur 1.20162 9.58706 28.8619
rtibia 19.0951
rfoot -14.6723 -4.31739
rtoes 18.9658
lfemur -30.6262 0.890116 -14.9403
ltibia 37.5923
lfoot -5.54624 6.22038
ltoes -6.30085
475
root 12.0895 17.5775 15.8724 136.253 95.5636 133.982
lowerback 7.62277 1.46726 1.89433
upperback 0.292792 2.27863 2.74899
thorax -4.01201 1.13924 1.53253
lowerneck -17.9403 -3.79641 -10.414
upperneck 21.047 -3.22027 4.44536
head 9.91694 -1.76416 2.85336
rclavicle -2.45002e-014 -1.31198e-014
rhumerus -23.8893 -8.7813 -80.6252
rradius 35.3547
rwrist 1.94228
rhand -15.8007 10.9188
rfingers 7.12502
rthumb 10.3924 -18.8044
lclavicle -2.45002e-014 -1.31198e-014
lhumerus -34.0317 18.9655 81.0302
lradius 23.7117
lwrist -10.0374
lhand -15.8492 23.7213
lfingers 7.12502
lthumb 10.3457 53.4468
rfemur 1.48769 9.29597 28.8415
rtibia 18.8439
rfoot -14.9975 -4.2544
rtoes 21.3662
lfemur -30.8759 -0.752558 -14.7005
ltibia 35.0373
lfoot -4.6436 6.41061
ltoes -7.63668
476
root 12.2241 17.5628 15.8924 140.362 95.962 138.049
lowerback 7.62194 1.81934 1.65732
upperback 0.275118 2.71584 2.58663
thorax -4.03892 1.35683 1.44877
lowerneck -17.6385 -3.73304 -9.69467
upperneck 20.8135 -3.30411 4.17171
head 9.76371 -1.776 2.62531
rclavicle -3.52843e-015 4.77083e-015
rhumerus -23.8967 -9.01641 -80.8858
rradius 35.7999
rwrist 1.70995
rhand -15.3434 11.026
rfingers 7.12502
rthumb 10.8335 -18.6746
lclavicle -3.52843e-015 4.77083e-015
lhumerus -33.9123 18.6794 80.8009
lradius 23.4952
lwrist -9.90357
lhand -16.5168 23.9061
lfingers 7.12502
lthumb 9.70158 53.6627
rfemur 2.06085 9.33897 28.9992
rtibia 18.5438
rfoot -14.6918 -4.72444
rtoes 16.3106
lfemur -30.5425 -0.75337 -14.445
ltibia 32.5671
lfoot -4.18177 6.18078
ltoes -9.0303
477
root 12.3593 17.5375 15.8779 140.66 95.9789 138.087
lowerback 7.45544 2.01201 1.83426
upperback 0.148187 2.97615 2.44016
thorax -4.06439 1.47921 1.1733
lowerneck -17.4269 -3.81797 -9.29874
upperneck 20.7755 -3.53265 4.08233
head 9.71759 -1.86107 2.49813
rclavicle 4.96962e-016 -1.82882e-014
rhumerus -24.0278 -9.54899 -80.7959
rradius 36.1699
rwrist 1.41106
rhand -14.841 11.4214
rfingers 7.12502
rthumb 11.3181 -18.2532
lclavicle 4.96962e-016 -1.82882e-014
lhumerus -33.8765 18.5509 80.6337
lradius 23.2797
lwrist -10.2403
lhand -16.8483 23.6559
lfingers 7.12502
lthumb 9.38174 53.4271
rfemur 2.17257 7.92628 29.0285
rtibia 18.2422
rfoot -13.8164 -5.37657
rtoes 3.74271
lfemur -30.6431 -0.868959 -14.3933
ltibia 30.2015
lfoot -3.82378 5.38919
ltoes -9.49588
